<?xml version="1.0" encoding="utf-8"?>
<!-- Generator: Adobe Illustrator 27.0.0, SVG Export Plug-In . SVG Version: 6.00 Build 0)  -->
<svg version="1.1" id="Layer_1" xmlns="http://www.w3.org/2000/svg" xmlns:xlink="http://www.w3.org/1999/xlink" x="0px" y="0px"
	 viewBox="0 0 433.42 126.66" style="enable-background:new 0 0 433.42 126.66;" xml:space="preserve">
<g>
	<path d="M0,2.59C8.7,1.11,22.44,0,36.4,0c19.92,0,32.74,2.77,42.36,9.06c8.01,4.81,12.82,12.2,12.82,22
		c0,12.02-9.85,22.56-26.1,27.37v0.37c14.65,2.96,31.83,12.76,31.83,31.25c0,10.72-5.27,18.86-13.05,24.96
		c-10.76,7.95-28.16,11.65-53.35,11.65c-13.74,0-24.27-0.74-30.91-1.48V2.59z M19.92,53.62h18.09c21.06,0,33.43-8.88,33.43-20.89
		c0-14.61-13.74-20.34-33.89-20.34c-9.16,0-14.42,0.55-17.63,1.11V53.62z M19.92,113.35c3.89,0.55,9.62,0.74,16.71,0.74
		c20.61,0,39.61-6.1,39.61-24.22c0-17.01-18.09-24.04-39.84-24.04H19.92V113.35z"/>
	<path d="M150.2,125.55L111.05,0.92h21.06l18.32,63.05c4.58,15.53,8.7,31.06,11.45,43.08h0.46c2.52-12.39,7.33-27.18,12.59-43.27
		l20.61-62.87h20.83l18.77,63.24c4.35,14.79,8.47,29.58,10.76,42.71h0.46c3.21-13.68,7.56-27.55,12.36-43.08L279.1,0.92h20.38
		l-43.73,124.63h-20.83l-19.46-64.9c-4.81-15.9-8.01-28.11-10.07-40.68h-0.46c-2.75,12.39-6.18,24.59-11.91,40.68l-21.98,64.9H150.2
		z"/>
	<path d="M338.64,0.92v52.14h74.64V0.92h20.15v124.63h-20.15V67.12h-74.64v58.43h-19.92V0.92H338.64z"/>
</g>
</svg>
